# xmcd CD database file
#
# Track frame offsets:
#	150
#	12092
#	22560
#	36865
#	47061
#	58870
#	70893
#	81631
#	97089
#	105780
#
# Disc length: 1569 seconds
#
# Revision: 1
# Processed by: cddbd v1.5.2PL0 Copyright (c) Steve Scherf et al.
# Submitted via: CDex 1.70beta2
#
DISCID=76061f0a
DTITLE=Tommy Irving - The Wild One
DYEAR=2001
DGENRE=Country
TTITLE0=The Wild One
TTITLE1=Hole in My Wranglers
TTITLE2=How I Miss San Antonio
TTITLE3=Honky Tonk Hardwood Heart
TTITLE4=Houston We Have a Problem
TTITLE5=The Tequila in Me
TTITLE6=Everybody I Know Loves Elvis
TTITLE7=Lone Star Cold
TTITLE8=Dog Time
TTITLE9=THe Battle of New Orleans
EXTD=YEAR: 2001
EXTT0=
EXTT1=
EXTT2=
EXTT3=
EXTT4=
EXTT5=
EXTT6=
EXTT7=
EXTT8=
EXTT9=
PLAYORDER=
